<?xml version="1.0" encoding="UTF-8"?>
<svg id="Layer_2" data-name="Layer 2" xmlns="http://www.w3.org/2000/svg" viewBox="0 0 530.22 99.62">
  <defs>
    <style>
      .cls-1 {
        fill: #fff;
      }

      .cls-1, .cls-2 {
        stroke-width: 0px;
      }

      .cls-2 {
        fill: #f74211;
      }
    </style>
  </defs>
  <g id="_Слой_1" data-name="Слой 1">
    <g>
      <path class="cls-1" d="m168.03,9.27V0h-52.4v44.83h10.03v-15.87h38.35v-9.13h-38.35v-10.55h42.36Z"/>
      <path class="cls-1" d="m182.47,0v44.83h10.3V0h-10.3Z"/>
      <path class="cls-1" d="m266.12,44.83h-11.33l-9.07-13.85h-28.05v13.85h-10.05v-22.47h38.02c3.2,0,5.54-.54,7.04-1.62,1.49-1.08,2.24-2.77,2.24-5.05v-.06c0-2.25-.75-3.9-2.24-4.99-1.5-1.08-3.83-1.62-7.04-1.62h-38.02V0h38.02c3.46,0,6.42.4,8.87,1.17,2.47.77,4.47,1.86,6.03,3.24,1.55,1.38,2.68,3.02,3.4,4.92.71,1.9,1.06,3.99,1.06,6.29v.06c0,3.24-.74,6.06-2.22,8.45-1.5,2.41-3.93,4.21-7.29,5.42l10.61,15.28Z"/>
      <path class="cls-1" d="m333.04,8.89V0h-52.4v44.83h52.4v-8.93h-42.36v-9.07h42.36v-8.68h-42.36v-9.26h42.36Z"/>
      <path class="cls-1" d="m401.06,9.27V0h-52.41v44.83h10.05v-15.87h38.35v-9.13h-38.35v-10.55h42.36Z"/>
      <path class="cls-1" d="m425.8,35.18V0h-10.3v44.83h51.04v-9.65h-40.74Z"/>
      <path class="cls-1" d="m517.26,0l-19.43,21.06L478.47,0h-12.96l27.2,29.28v15.55h10.3v-15.55l27.21-29.28h-12.96Z"/>
      <path class="cls-1" d="m168.29,82.78c-.44-1.33-1.16-2.56-2.18-3.69-1.02-1.12-2.37-2.1-4.05-2.95-1.68-.85-3.77-1.47-6.29-1.91l-27.33-3.49c-1.98-.35-3.39-.83-4.21-1.46s-1.23-1.45-1.23-2.49c0-2.28,1.92-3.43,5.77-3.43h37.96v-8.95h-38.16c-2.76,0-5.1.31-7.02.94-1.92.63-3.49,1.49-4.7,2.6-1.21,1.1-2.09,2.39-2.65,3.88-.57,1.49-.85,3.1-.85,4.82,0,1.34.21,2.68.62,4.01.41,1.34,1.1,2.56,2.07,3.66.98,1.1,2.28,2.07,3.93,2.91,1.63.85,3.69,1.46,6.15,1.85l27.59,3.49c1.95.35,3.36.82,4.24,1.43.88.6,1.33,1.51,1.33,2.72s-.48,2.16-1.46,2.72c-.97.57-2.49.85-4.56.85h-39.06v8.93h39.38c2.8,0,5.19-.31,7.13-.94,1.93-.62,3.52-1.49,4.73-2.59,1.21-1.1,2.09-2.41,2.65-3.92.57-1.51.85-3.13.85-4.86,0-1.43-.22-2.8-.64-4.15Z"/>
      <path class="cls-1" d="m251.19,67.23c-1.1-2.8-2.71-5.19-4.82-7.16-2.12-1.96-4.71-3.46-7.77-4.5-3.07-1.04-6.54-1.56-10.43-1.56h-19.5c-3.88,0-7.36.52-10.42,1.56-3.07,1.04-5.66,2.54-7.77,4.5-2.12,1.97-3.72,4.35-4.82,7.16-1.11,2.82-1.66,5.98-1.66,9.53v.06c0,3.54.54,6.73,1.66,9.56,1.1,2.83,2.71,5.22,4.82,7.18,2.12,1.97,4.7,3.47,7.77,4.51,3.06,1.03,6.54,1.55,10.42,1.55h19.5c3.89,0,7.36-.52,10.43-1.55,3.06-1.04,5.66-2.54,7.77-4.51,2.12-1.96,3.72-4.35,4.82-7.18,1.1-2.83,1.64-6.02,1.64-9.56v-.06c0-3.54-.54-6.71-1.64-9.53Zm-8.45,9.59c0,4.23-1.22,7.54-3.66,9.95-2.44,2.39-6.08,3.59-10.92,3.59h-19.5c-4.84,0-8.47-1.2-10.9-3.59-2.44-2.41-3.66-5.72-3.66-9.95v-.06c0-4.2,1.22-7.48,3.66-9.88,2.43-2.39,6.07-3.59,10.9-3.59h19.5c4.84,0,8.47,1.2,10.92,3.59,2.44,2.39,3.66,5.68,3.66,9.88v.06Z"/>
      <path class="cls-1" d="m280.2,89.59v-35.18h-10.3v44.83h51.04v-9.65h-40.74Z"/>
      <path class="cls-1" d="m374.49,54.4h-10.24l-28.76,44.83h11.15l5.63-9.13h34.2l5.63,9.13h11.13l-28.75-44.83Zm-17.03,27.27l11.91-18.33,11.86,18.33h-23.77Z"/>
      <path class="cls-1" d="m473.99,99.23h-11.33l-9.08-13.85h-28.04v13.85h-10.05v-22.47h38.02c3.19,0,5.54-.54,7.02-1.62,1.5-1.08,2.24-2.77,2.24-5.05v-.06c0-2.25-.74-3.9-2.24-4.99-1.49-1.08-3.83-1.62-7.02-1.62h-38.02v-9.01h38.02c3.46,0,6.42.4,8.87,1.17,2.47.77,4.47,1.86,6.02,3.24,1.56,1.38,2.7,3.02,3.41,4.92.71,1.9,1.06,3.99,1.06,6.29v.06c0,3.24-.74,6.06-2.24,8.45-1.49,2.39-3.92,4.21-7.29,5.42l10.63,15.28Z"/>
      <g>
        <g>
          <rect class="cls-2" x="69.65" width="31.65" height="30.62"/>
          <rect class="cls-2" y="34.38" width="31.65" height="30.62"/>
          <rect class="cls-2" x="34.82" width="31.67" height="30.62"/>
          <rect class="cls-2" x="34.82" y="34.38" width="31.67" height="30.62"/>
          <rect class="cls-2" y="68.75" width="31.65" height="30.64"/>
        </g>
        <path class="cls-2" d="m31.65,0v30.62H0v-9.77C0,9.36,7.88,0,17.58,0h14.07Z"/>
      </g>
    </g>
  </g>
</svg>